 http://img412.imageshack.us/img412/7227/poster1z.jpg



[i][b]AKA: B gai waak
Year: 1998
Directed: Li Xian Luo
Genre: Action
Runtime: 1h 35mn
Country: Hong Kong
Language: cantonese
Subtitles: ENGLISH
Cast: Cheung Chi Lam || Theresa Lee || Shu Qi (Hsu Chi, Shu Kei) || Kenya Sawada
IMDB: http://www.imdb.com/title/tt0180685/


Overview: The leader of the famous Japanese cult who was responsible for the sarin attacks in the subway was arrested in Hong Kong. The Japanese are negotiating with Hong Kong officials for the extradition of the cult leader. Meanwhile some members of the cult murder some people and demand the release of their leader or they will attack Hong Kong with sarin (the chemical weapon). A member of the HK police takes it personally when another cop is killed by the terrorists. With the help of a Japanese police officer they try to track down and stop the terrorist before to make a sarin gas attack. The final showdown takes them to a TV station that the terrorist have captured to spread fear in the city.

General Info:
Complete name : Extreme.Crysis.1998.DVDRip.H264.AAC-D34dLy.mp4
Format : MPEG-4
Format profile : Base Media
Codec ID : isom
File size : 350 MiB
Duration : 1h 35mn
Overall bit rate : 514 Kbps

Video Info:
ID : 1
Format : AVC
Format/Info : Advanced Video Codec
Format profile : High@L3.2
Format settings, CABAC : Yes
Format settings, ReFrames : 3 frames
Codec ID : avc1
Codec ID/Info : Advanced Video Coding
Duration : 1h 35mn
Bit rate mode : Variable
Bit rate : 465 Kbps
Maximum bit rate : 2 145 Kbps
Width : 720 pixels
Height : 304 pixels
Display aspect ratio : 2.35:1
Frame rate mode : Constant
Frame rate : 23.976 fps
Resolution : 8 bits
Colorimetry : 4:2:0
Scan type : Progressive
Bits/(Pixel*Frame) : 0.089
Stream size : 316 MiB (90%)
Title : Imported with GPAC 0.4.6-DEV (build 1)
Writing library : x264 core 80 r1376M 3feaec2

Audio Info:
ID : 2
Format : AAC
Format/Info : Advanced Audio Codec
Format version : Version 4
Format profile : LC
Format settings, SBR : Yes
Format settings, PS : No
Codec ID : 40
Duration : 1h 35mn
Bit rate mode : Variable
Bit rate : 48.0 Kbps
Maximum bit rate : 54.5 Kbps
Channel(s) : 2 channels
Channel positions : Front: L R
Sampling rate : 48.0 KHz
Stream size : 32.5 MiB (9%)



Screenshots:[/i][/b]
 
http://img52.imageshack.us/img52/1910/91313762.jpg 
http://img340.imageshack.us/img340/9052/53155991.jpg 
http://img444.imageshack.us/img444/3354/aaaqf.jpg 
http://img52.imageshack.us/img52/7475/aaaaojb.jpg 
http://img441.imageshack.us/img441/1790/aaaaara.jpg 
http://img408.imageshack.us/img408/9207/extremecrysis1998dvdrip.jpg

